<svg xmlns="http://www.w3.org/2000/svg" xmlns:xlink="http://www.w3.org/1999/xlink" version="1.1" x="0px" y="0px" viewBox="0 0 100 100" xml:space="preserve"><path d="M85.8,69.6v8.1C85.8,87.1,69.4,95,50,95s-35.8-7.9-35.8-17.3v-8.1c3.2,3.3,7.9,6.1,13.7,8.1c6.3,2.2,13.8,3.5,22,3.5  s15.8-1.3,22-3.5C77.8,75.7,82.6,72.9,85.8,69.6z M72,59.2c-6.3,2.2-13.8,3.5-22,3.5s-15.8-1.3-22-3.5c-5.8-2-10.5-4.8-13.7-8.1v8.1  c0,9.4,16.4,17.3,35.8,17.3s35.8-7.9,35.8-17.3v-8.1C82.6,54.4,77.8,57.2,72,59.2z M72,40.8c-6.3,2.2-13.8,3.5-22,3.5  S34.2,43,28,40.8c-5.8-2-10.5-4.8-13.7-8.1v8.1c0,9.4,16.4,17.3,35.8,17.3s35.8-7.9,35.8-17.3v-8.1C82.6,36,77.8,38.8,72,40.8z   M50,5c-19.4,0-35.8,7.9-35.8,17.3S30.6,39.6,50,39.6s35.8-7.9,35.8-17.3S69.4,5,50,5z"/></svg>
