<svg xmlns="http://www.w3.org/2000/svg" xmlns:xlink="http://www.w3.org/1999/xlink" version="1.0" x="0px" y="0px" viewBox="0 0 100 100" enable-background="new 0 0 100 100" xml:space="preserve"><path d="M40.5352516,71.7591171l1.9782486-1.9931107c3.0599098-3.0598221,6.3793983-4.6113129,9.924572-4.6113129  c5.0105171,0,8.5629311,3.1332779,8.9562721,3.5166779L64,71.134407V31H29v51h21.0995178l-7.5788231-8.0012436  L40.5352516,71.7591171z M37.8654633,46.0366669c0-4.5747681,3.7085648-8.2833328,8.2833328-8.2833328  s8.2833328,3.7085648,8.2833328,8.2833328s-3.7085648,8.2833328-8.2833328,8.2833328S37.8654633,50.6114349,37.8654633,46.0366669z" fill="white"/><path d="M67,54.9116669v17.3949966l-2.9409714,3.1654663l-4.7986336-4.7924957c0,0-6.8960304-6.4654694-14.7060318,1.3445358  L67.9221268,96H86V75.1466675C86,75.1466675,88,54.9116669,67,54.9116669z" fill="white"/><path d="M46.1487961,22.6066666c4.8870697,0,9.4610825,1.3661346,13.3603058,3.7367783l2.2042198-4.1902313  c-4.5609474-2.714756-9.8824425-4.2798805-15.5645256-4.2798805c-6.5673103,0-12.6516342,2.0916595-17.6368732,5.6335182  l2.4599133,4.055048C35.2340126,24.4496365,40.4792099,22.6066666,46.1487961,22.6066666z" fill="white"/><path d="M64.2483978,17.3348694l2.2041245-4.1902304c-5.9812279-3.4577951-12.9122467-5.4479723-20.3037262-5.4479723  c-8.4970894,0-16.3919125,2.6209412-22.9258995,7.0914803l2.4599133,4.0549526  c5.8143311-4.0379133,12.8663349-6.4130993,20.4659863-6.4130993  C52.7451706,12.4300003,58.9273758,14.2227974,64.2483978,17.3348694z" fill="white"/></svg>
