<svg xmlns="http://www.w3.org/2000/svg" xmlns:xlink="http://www.w3.org/1999/xlink" xmlns:serif="http://www.serif.com/" viewBox="0 0 24 24" version="1.1" xml:space="preserve" style="" x="0px" y="0px" fill-rule="evenodd" clip-rule="evenodd" stroke-linejoin="round" stroke-miterlimit="2"><g><g><path d="M6.5,8.5l-0,5c-0,0.796 0.316,1.559 0.879,2.121c0.562,0.563 1.325,0.879 2.121,0.879c1.488,0 3.512,0 5,0c0.796,0 1.559,-0.316 2.121,-0.879c0.563,-0.562 0.879,-1.325 0.879,-2.121l-0,-5c0.552,0 1,-0.448 1,-1l0,-2.5c0,-0.552 -0.448,-1 -1,-1l-11,-0c-0.552,0 -1,0.448 -1,1l-0,2.5c-0,0.552 0.448,1 1,1Z"/><path d="M10,5l0,-3c-0,-0.552 -0.448,-1 -1,-1c-0.552,0 -1,0.448 -1,1l0,3c-0,0.552 0.448,1 1,1c0.552,0 1,-0.448 1,-1Z"/><path d="M16,5l0,-3c0,-0.552 -0.448,-1 -1,-1c-0.552,-0 -1,0.448 -1,1l0,3c0,0.552 0.448,1 1,1c0.552,-0 1,-0.448 1,-1Z"/><path d="M11,15.5c0,-0 -0,1.796 -0,3.5c-0,1.061 0.421,2.078 1.172,2.828c0.75,0.751 1.767,1.172 2.828,1.172c1.063,-0 2,-0 2,-0c0.552,0 1,-0.448 1,-1c0,-0.552 -0.448,-1 -1,-1l-2,-0c-0.53,-0 -1.039,-0.211 -1.414,-0.586c-0.375,-0.375 -0.586,-0.884 -0.586,-1.414c-0,-1.704 -0,-3.5 -0,-3.5c0,-0.552 -0.448,-1 -1,-1c-0.552,-0 -1,0.448 -1,1Z"/></g></g></svg>
