<svg xmlns="http://www.w3.org/2000/svg" xmlns:xlink="http://www.w3.org/1999/xlink" version="1.1" x="0px" y="0px" viewBox="0 0 100 100" xml:space="preserve"><style type="text/css">
	.st0{fill-rule:evenodd;clip-rule:evenodd;}
</style><path class="st0" d="M29.7,34H15.5c-2.5,0-4.6-2.1-4.6-4.6V15.2c0-2.5,2.1-4.6,4.6-4.6h14.2c2.5,0,4.6,2.1,4.6,4.6v14.2  C34.3,31.9,32.2,34,29.7,34z" fill="white"/><path class="st0" d="M57.1,34H42.9c-2.5,0-4.6-2.1-4.6-4.6V15.2c0-2.5,2.1-4.6,4.6-4.6h14.2c2.5,0,4.6,2.1,4.6,4.6v14.2  C61.7,31.9,59.6,34,57.1,34z" fill="white"/><path class="st0" d="M84.5,34H70.3c-2.5,0-4.6-2.1-4.6-4.6V15.2c0-2.5,2.1-4.6,4.6-4.6h14.2c2.5,0,4.6,2.1,4.6,4.6v14.2  C89.1,31.9,87,34,84.5,34z" fill="white"/><path class="st0" d="M29.7,61.7H15.5c-2.5,0-4.6-2.1-4.6-4.6V42.9c0-2.5,2.1-4.6,4.6-4.6h14.2c2.5,0,4.6,2.1,4.6,4.6v14.2  C34.3,59.6,32.2,61.7,29.7,61.7z" fill="white"/><path class="st0" d="M57.1,61.7H42.9c-2.5,0-4.6-2.1-4.6-4.6V42.9c0-2.5,2.1-4.6,4.6-4.6h14.2c2.5,0,4.6,2.1,4.6,4.6v14.2  C61.7,59.6,59.6,61.7,57.1,61.7z" fill="white"/><path class="st0" d="M84.5,61.7H70.3c-2.5,0-4.6-2.1-4.6-4.6V42.9c0-2.5,2.1-4.6,4.6-4.6h14.2c2.5,0,4.6,2.1,4.6,4.6v14.2  C89.1,59.6,87,61.7,84.5,61.7z" fill="white"/><path class="st0" d="M29.7,89.4H15.5c-2.5,0-4.6-2.1-4.6-4.6V70.6c0-2.5,2.1-4.6,4.6-4.6h14.2c2.5,0,4.6,2.1,4.6,4.6v14.2  C34.3,87.3,32.2,89.4,29.7,89.4z" fill="white"/><path class="st0" d="M57.1,89.4H42.9c-2.5,0-4.6-2.1-4.6-4.6V70.6c0-2.5,2.1-4.6,4.6-4.6h14.2c2.5,0,4.6,2.1,4.6,4.6v14.2  C61.7,87.3,59.6,89.4,57.1,89.4z" fill="white"/><path class="st0" d="M84.5,89.4H70.3c-2.5,0-4.6-2.1-4.6-4.6V70.6c0-2.5,2.1-4.6,4.6-4.6h14.2c2.5,0,4.6,2.1,4.6,4.6v14.2  C89.1,87.3,87,89.4,84.5,89.4z" fill="white"/></svg>
