<svg xmlns="http://www.w3.org/2000/svg" xmlns:xlink="http://www.w3.org/1999/xlink" version="1.1" x="0px" y="0px" viewBox="0 0 100 100" xml:space="preserve"><g display="none"><path display="inline" fill="#000000" d="M436,927.403H-880c-1.65,0-3-1.35-3-3V-389.993c0-1.65,1.35-3,3-3H436c1.65,0,3,1.35,3,3   V924.403C439,926.053,437.65,927.403,436,927.403z"/></g><g><path d="M10.278,92.182C12.156,94.061,14.619,95,17.081,95c2.462,0,4.924-0.939,6.803-2.818l39.858-39.858   c2.305,0.702,4.695,1.054,7.085,1.054c6.19,0,12.378-2.358,17.101-7.081c7.241-7.241,8.913-17.923,5.057-26.776l-9.8,9.8   c-1.144,1.144-2.643,1.716-4.142,1.716c-1.499,0-2.998-0.572-4.142-1.716L70.679,25.1c-2.288-2.288-2.288-5.996,0-8.284l9.8-9.8   C77.396,5.673,74.089,5,70.785,5c-6.184,0-12.363,2.353-17.082,7.073c-6.546,6.546-8.55,15.907-6.027,24.185L7.818,76.116   c-3.757,3.757-3.757,9.849,0,13.606L10.278,92.182z"/></g></svg>
